<?xml version="1.0" standalone="no"?>
<!DOCTYPE svg PUBLIC "-//W3C//DTD SVG 20010904//EN"
 "http://www.w3.org/TR/2001/REC-SVG-20010904/DTD/svg10.dtd">
<svg version="1.0" xmlns="http://www.w3.org/2000/svg"
 width="512.000000pt" height="512.000000pt" viewBox="0 0 512.000000 512.000000"
 preserveAspectRatio="xMidYMid meet">

<g transform="translate(0.000000,512.000000) scale(0.100000,-0.100000)"
fill="#000000" stroke="none">
<path d="M2505 5093 c-97 -97 -248 -311 -314 -448 -156 -318 -166 -588 -40
-1087 16 -64 29 -120 29 -123 0 -4 -25 28 -56 71 -205 287 -451 528 -690 676
-175 108 -216 120 -253 72 -24 -30 -27 -62 -8 -88 7 -9 52 -38 100 -64 260
-140 544 -412 756 -722 66 -96 186 -299 180 -304 -2 -2 -96 70 -209 161 -397
319 -619 440 -900 489 -191 33 -468 6 -688 -67 -101 -34 -105 -64 -28 -224 72
-148 178 -305 279 -412 223 -236 473 -349 970 -440 53 -10 97 -20 97 -23 0 -3
-46 -13 -102 -23 -476 -84 -744 -206 -965 -440 -101 -107 -207 -264 -279 -412
-83 -171 -77 -191 64 -235 169 -53 300 -74 462 -74 312 -1 517 83 887 364 231
175 210 162 183 110 -95 -186 -278 -429 -459 -610 -160 -159 -252 -231 -423
-331 -125 -73 -145 -98 -117 -147 26 -47 60 -51 137 -13 384 189 802 640 1046
1129 42 85 67 114 83 99 3 -3 -29 -145 -71 -314 -108 -439 -129 -600 -84 -643
58 -54 128 -2 128 95 0 69 44 283 124 604 75 303 85 336 109 353 l27 20 0
-305 c0 -313 5 -358 40 -377 30 -16 68 -12 90 10 19 19 20 33 20 345 0 179 3
325 8 325 4 0 18 -9 31 -19 20 -16 35 -63 102 -332 114 -457 131 -552 132
-734 0 -130 -4 -163 -26 -248 -32 -120 -104 -272 -182 -387 -68 -100 -124
-170 -136 -170 -10 0 -112 133 -162 212 -50 79 -100 180 -126 257 -30 87 -38
100 -67 111 -31 12 -68 -2 -90 -34 -15 -24 -15 -30 6 -98 54 -179 214 -438
372 -605 48 -52 82 -56 123 -15 97 96 248 310 314 447 91 185 125 331 124 535
0 172 -23 307 -114 673 -38 153 -69 282 -69 287 0 6 6 10 14 10 8 0 43 -56 81
-126 266 -507 673 -937 1052 -1113 45 -21 56 -22 82 -12 37 16 55 61 39 97 -7
14 -33 36 -61 50 -252 128 -508 355 -723 641 -109 144 -272 408 -233 377 294
-237 510 -379 673 -444 146 -58 234 -74 406 -74 173 0 296 19 472 74 143 45
148 66 60 242 -188 374 -428 601 -769 727 -100 37 -324 93 -465 117 -60 10
-108 21 -108 24 0 3 57 16 128 29 277 51 462 109 625 193 238 124 436 341 589
646 82 164 78 197 -24 231 -218 73 -498 100 -684 67 -287 -50 -507 -169 -911
-495 -117 -94 -213 -168 -213 -164 0 14 110 201 175 298 100 148 205 276 329
401 134 133 253 226 395 311 152 89 151 89 151 128 0 42 -29 75 -65 75 -51 0
-222 -100 -375 -219 -169 -131 -340 -311 -494 -520 -42 -57 -76 -99 -76 -93 0
6 11 57 25 114 44 181 66 320 72 448 5 115 4 127 -14 149 -28 34 -79 33 -108
-1 -19 -22 -23 -41 -28 -144 -6 -132 -27 -250 -93 -524 -67 -280 -62 -264 -82
-247 -9 8 -32 22 -49 31 l-33 17 0 372 c0 421 1 417 -69 417 -26 0 -44 -7 -57
-21 -18 -20 -19 -44 -22 -398 l-4 -376 -44 -32 -43 -32 -10 37 c-131 495 -165
674 -164 862 1 176 26 286 101 443 62 130 216 357 242 357 13 0 143 -196 193
-290 25 -47 55 -113 68 -148 31 -87 77 -120 129 -92 35 19 40 62 16 131 -59
168 -274 512 -366 586 -26 21 -65 15 -95 -14z m-1408 -1518 c261 -50 448 -159
903 -530 102 -83 202 -164 223 -179 30 -23 37 -35 37 -62 0 -19 -1 -34 -3 -34
-2 0 -113 61 -247 135 -150 83 -255 135 -272 135 -15 0 -37 -9 -48 -20 -25
-25 -26 -81 -2 -102 9 -9 121 -73 247 -143 127 -70 232 -130 235 -133 3 -3
-11 -2 -30 2 -19 4 -161 29 -315 57 -515 91 -683 144 -880 274 -89 58 -232
207 -304 314 -75 114 -136 231 -124 241 7 7 162 44 223 53 68 11 285 6 357 -8z
m3403 -15 c52 -12 99 -26 103 -30 5 -4 -7 -39 -26 -77 -64 -126 -158 -255
-257 -353 -183 -181 -377 -272 -733 -344 -165 -34 -629 -117 -633 -113 -2 1
105 63 237 136 131 73 244 141 249 151 25 47 -10 110 -61 110 -18 0 -106 -43
-241 -118 -117 -66 -228 -127 -245 -136 l-33 -17 0 34 c0 30 9 40 83 99 45 36
170 136 277 223 358 288 556 400 796 450 107 22 363 14 484 -15z m-1884 -435
c59 -59 95 -209 95 -396 -1 -146 -4 -140 102 -188 181 -81 327 -238 327 -350
0 -50 -28 -72 -100 -79 -103 -10 -265 56 -379 153 -36 30 -73 57 -83 61 -22 7
-50 -8 -124 -69 -142 -114 -320 -172 -423 -136 -146 51 42 326 292 426 34 13
68 32 75 41 8 11 12 58 12 152 0 104 5 156 20 215 42 165 120 236 186 170z
m-731 -757 l-34 -63 -228 -107 c-125 -59 -238 -116 -250 -127 -46 -40 -15
-121 47 -121 16 0 116 41 221 90 106 50 193 89 194 88 1 -2 10 -19 20 -38 9
-19 26 -44 36 -55 19 -21 18 -22 -123 -130 -194 -150 -315 -229 -433 -286
-225 -107 -440 -125 -727 -58 -48 11 -90 25 -93 29 -8 13 55 133 124 237 185
277 416 426 798 518 100 24 422 83 455 84 l28 1 -35 -62z m1546 27 c106 -20
229 -45 273 -56 373 -93 594 -239 777 -513 69 -103 132 -223 124 -236 -3 -4
-45 -18 -93 -29 -285 -66 -500 -50 -719 54 -120 56 -230 129 -425 278 l-157
121 29 33 c17 18 33 45 36 58 3 14 8 25 11 25 2 0 90 -40 196 -90 105 -49 203
-90 217 -90 43 0 70 26 70 69 0 23 -7 44 -17 54 -10 8 -121 64 -248 122 -126
59 -231 111 -233 115 -2 4 -18 33 -37 64 -30 49 -31 56 -15 56 11 0 106 -16
211 -35z"/>
</g>
</svg>
