<?xml version="1.0" encoding="utf-8"?>
<!-- Generator: Adobe Illustrator 27.8.1, SVG Export Plug-In . SVG Version: 6.00 Build 0)  -->
<svg version="1.1" id="Lager_1" xmlns="http://www.w3.org/2000/svg" xmlns:xlink="http://www.w3.org/1999/xlink" x="0px" y="0px"
	 viewBox="0 0 108 39" style="enable-background:new 0 0 108 39;" xml:space="preserve">
<style type="text/css">
	.st0{fill-rule:evenodd;clip-rule:evenodd;fill:#FFFFFF;}
	.st1{filter:url(#Adobe_OpacityMaskFilter);}
	.st2{mask:url(#mask-2_00000030484127583819431350000018320469471539024821_);fill-rule:evenodd;clip-rule:evenodd;fill:#FFFFFF;}
	.st3{filter:url(#Adobe_OpacityMaskFilter_00000028289495861888846760000012047740576987043975_);}
	.st4{mask:url(#mask-2_00000080895854239029847690000000737611980498323877_);fill-rule:evenodd;clip-rule:evenodd;fill:#FFFFFF;}
</style>
<g id="designskiss-almi-startsida-2018-01-04" transform="translate(-50.000000, -28.000000)">
	<g id="Group-2" transform="translate(50.000000, 28.000000)">
		<g id="Almi_Logo_svart_RGB">
			<g id="Almi_Logo_svart_CMYK-C_U">
				<path id="Fill-1" class="st0" d="M103.5,9c2.4,0,4.4-2,4.4-4.5c0-2.4-2-4.5-4.4-4.5c-2.4,0-4.4,2-4.4,4.5
					C99.1,7,101.1,9,103.5,9"/>
				<polygon id="Fill-2" class="st0" points="99.9,38.4 107.2,38.4 107.2,11.7 99.9,11.7 				"/>
				<g id="Group-6" transform="translate(0.000000, 0.404842)">
					<g id="Clip-4">
					</g>
					<defs>
						<filter id="Adobe_OpacityMaskFilter" filterUnits="userSpaceOnUse" x="33.4" y="0.7" width="7.2" height="37.3">
							<feColorMatrix  type="matrix" values="1 0 0 0 0  0 1 0 0 0  0 0 1 0 0  0 0 0 1 0"/>
						</filter>
					</defs>
					
						<mask maskUnits="userSpaceOnUse" x="33.4" y="0.7" width="7.2" height="37.3" id="mask-2_00000030484127583819431350000018320469471539024821_">
						<g class="st1">
							<polygon id="path-1_00000054234390248617927210000005922705439351606187_" class="st0" points="0,0.7 40.7,0.7 40.7,38.4 
								0,38.4 							"/>
						</g>
					</mask>
					<polygon id="Fill-3" class="st2" points="33.4,38 40.7,38 40.7,0.7 33.4,0.7 					"/>
					<defs>
						
							<filter id="Adobe_OpacityMaskFilter_00000154405209541479847040000004200603586154290877_" filterUnits="userSpaceOnUse" x="0" y="10.9" width="27.3" height="27.6">
							<feColorMatrix  type="matrix" values="1 0 0 0 0  0 1 0 0 0  0 0 1 0 0  0 0 0 1 0"/>
						</filter>
					</defs>
					
						<mask maskUnits="userSpaceOnUse" x="0" y="10.9" width="27.3" height="27.6" id="mask-2_00000080895854239029847690000000737611980498323877_">
						<g style="filter:url(#Adobe_OpacityMaskFilter_00000154405209541479847040000004200603586154290877_);">
							<polygon id="path-1_00000001662829632036972980000002485711448850915210_" class="st0" points="0,0.7 40.7,0.7 40.7,38.4 
								0,38.4 							"/>
						</g>
					</mask>
					<path id="Fill-5" class="st4" d="M18.6,29.6c-1.3,1.3-3,2.1-4.9,2.1c-1.9,0-3.7-0.8-4.9-2.1c-1.3-1.3-2-3-2-5c0-2,0.8-3.7,2-5
						c1.3-1.3,3-2.1,4.9-2.1c1.9,0,3.7,0.8,4.9,2.1c1.3,1.3,2,3,2,5C20.6,26.6,19.9,28.3,18.6,29.6z M20.6,11.3v1.5
						c-2.1-1.3-4.4-1.9-7-1.9c-3.8,0-7,1.3-9.7,4c-2.7,2.7-4,5.9-4,9.8c0,3.8,1.3,7.1,4,9.8c2.7,2.7,5.9,4,9.7,4
						c2.6,0,4.9-0.6,7-1.9v1.4h6.7V11.3H20.6z"/>
				</g>
				<path id="Fill-7" class="st0" d="M94.7,25.1v13.3h-6.7V25.1c0-2-0.8-3.7-2-5c-1.3-1.3-3-2.1-4.9-2.1c-1.9,0-3.7,0.8-4.9,2.1
					c-1.3,1.3-2,3-2,5v13.3h-6.7V25.1c0-2-0.8-3.7-2-5c-1.3-1.3-3-2.1-4.9-2.1s-3.7,0.8-4.9,2.1c-1.3,1.3-2,3-2,5v13.3h-6.7V11.7
					h6.7v1.4c2.1-1.3,4.4-1.9,7-1.9c3.8,0,7,1.3,9.7,4c0.2,0.2,0.4,0.5,0.7,0.7c0.2-0.2,0.4-0.5,0.7-0.7c2.7-2.7,5.9-4,9.7-4
					c3.8,0,7,1.3,9.7,4C93.4,18,94.7,21.2,94.7,25.1"/>
			</g>
		</g>
	</g>
</g>
</svg>
