<?xml version="1.0" encoding="utf-8"?>
<!-- Generator: Adobe Illustrator 27.8.1, SVG Export Plug-In . SVG Version: 6.00 Build 0)  -->
<svg version="1.1" id="Layer_1" xmlns="http://www.w3.org/2000/svg" xmlns:xlink="http://www.w3.org/1999/xlink" x="0px" y="0px"
	 viewBox="0 0 492.7 88" style="enable-background:new 0 0 492.7 88;" xml:space="preserve">
<style type="text/css">
	.st0{clip-path:url(#SVGID_00000168817193271143260080000004068856383347098505_);}
	.st1{fill:#FFFFFF;}
</style>
<g>
	<defs>
		<rect id="SVGID_1_" x="-3.7" y="-21.6" width="500" height="129.3"/>
	</defs>
	<clipPath id="SVGID_00000119804158490063046130000014359082122760422530_">
		<use xlink:href="#SVGID_1_"  style="overflow:visible;"/>
	</clipPath>
	<g style="clip-path:url(#SVGID_00000119804158490063046130000014359082122760422530_);">
		<path class="st1" d="M26,18.7c-9.7,0-17,1.6-23.3,9.8l-0.6,0.7l7.9,7.2l0.6-1c3.4-5,7.4-6.8,15.2-6.8c10.7,0,15.3,3.9,15.3,13v5.1
			H23C8.6,46.8,0,54,0,66.1c-0.1,5,1.7,10,5.1,13.7c4.2,4.3,9.8,6.1,18.7,6.1c7.8,0,12.6-1.5,17.3-5.6v4.8h11.3V40.9
			C52.4,26.4,43.3,18.7,26,18.7 M38.2,71.9c-3.8,3.7-8.4,4-13.5,4c-9.4,0-13.6-3-13.6-9.9s4.3-10.2,13.2-10.2h16.8v5.8
			C41.1,66.6,40.1,70,38.2,71.9L38.2,71.9z"/>
		<polygon class="st1" points="91.9,68.4 75.3,19.5 63,19.5 87,85.1 96.7,85.1 120.8,19.5 108.5,19.5 		"/>
		<path class="st1" d="M154.4,18.8c-17,0-27.1,12.6-27.1,33.6c0,21.6,10.2,33.5,28.7,33.5c0.5,0,1,0,1.5,0c8.7,0,16.9-3.7,22.6-10.3
			l0.7-0.8l-7.9-6.9l-0.7,0.8c-4,4.6-9.8,7.2-15.9,6.9c-11.1,0-17.4-7.1-17.7-19.9h42.9v-5.2C181.5,31,171.1,18.8,154.4,18.8
			 M138.7,46.8c0-3.2,0.7-6.3,1.9-9.2c3.5-7.7,12.6-11.1,20.3-7.5c3.3,1.5,6,4.2,7.5,7.5c1.2,2.9,1.9,6,2,9.2L138.7,46.8z"/>
		<path class="st1" d="M245.1,25c-4.6-4.3-10.6-6.6-16.9-6.3c-6.2-0.1-12.2,2.1-16.8,6.3v-5.5H200v65.6h11.2V44.9
			c0-10.1,5.4-15.9,14.8-15.9s14.6,5.7,14.6,15.9v40.2H252V43.5C252.3,36.7,249.8,30,245.1,25"/>
		<path class="st1" d="M286.1,66.8V28.9h13.6v-9.1h-13.6V0h-11.3v19.8h-8V29h8v38c0,11,6.8,18.1,17.3,18.1h7.6v-10h-6
			C288.6,75.1,286.1,72.3,286.1,66.8"/>
		<path class="st1" d="M356.8,59.7c0,10.1-5.4,15.9-14.9,15.9s-14.5-5.7-14.5-15.9V19.5h-11.3v41.6c0,8.1,2.2,14.1,6.8,18.6
			c4.4,4,10.1,6.2,16,6.2h1.1c6.3,0.1,12.3-2.2,17-6.4v5.6h11.2V19.5h-11.3V59.7z"/>
		<path class="st1" d="M418.1,18.7c-6.3-0.2-12.4,2.3-16.8,6.8v-6H390v65.6h11.4v-40c0-9.4,5.9-16,14.2-16h0.1
			c3.9-0.2,7.6,1.3,10.1,4.3l0.7,0.8l8.3-8.5l-0.7-0.7C429.9,20.7,424.1,18.4,418.1,18.7"/>
		<path class="st1" d="M492.7,50.6c0-19.6-10.4-31.7-27.1-31.7c-17,0-27.1,12.5-27.1,33.6c0,21.6,10.2,33.5,28.8,33.6h1.5
			c8.7,0,16.9-3.7,22.6-10.3l0.7-0.8l-7.9-6.9l-0.7,0.8c-4,4.6-9.8,7.2-15.9,6.9c-11.1,0-17.4-7-17.7-19.9l42.9,0.1L492.7,50.6z
			 M449.9,46.8c0-3.2,0.7-6.3,1.9-9.2c3.5-7.7,12.7-11,20.3-7.5c3.3,1.5,6,4.2,7.5,7.5c1.2,2.9,1.8,6,1.9,9.2L449.9,46.8z"/>
	</g>
</g>
</svg>
