<svg xmlns:xlink="http://www.w3.org/1999/xlink" class="logo" xmlns="http://www.w3.org/2000/svg" width="237" height="48" viewBox="0 0 237 48">
    <circle cx="3.628" cy="3.628" r="3.628" fill="#000000"></circle>
    <circle cx="12.764" cy="11.421" r="3.628" fill="#000000"></circle>
    <circle cx="21.901" cy="19.212" r="3.628" fill="#000000"></circle>
  <circle cx="12.764" cy="27.004" r="3.628" fill="#000000"></circle>
  <circle cx="3.628" cy="34.797" r="3.628" fill="#000000"></circle>
  <circle cx="233.554" cy="3.628" r="3.628" fill="#000000"></circle>
  <circle cx="224.418" cy="11.421" r="3.628" fill="#000000"></circle>
  <circle cx="215.28" cy="19.212" r="3.628" fill="#000000"></circle>
  <circle cx="224.418" cy="27.004" r="3.628" fill="#000000"></circle>
  <circle cx="233.554" cy="34.797" r="3.628" fill="#000000"></circle>
  <path d="M54.288 10.739l-3.536 3.849c-.851-.76-1.925-1.165-3.224-1.165-1.296 0-2.416.405-3.266 1.165-1.163.984-1.835 2.596-1.835 4.476v.268c0 1.835.672 3.491 1.835 4.475.85.76 1.969 1.164 3.266 1.164 1.299 0 2.373-.403 3.224-1.164l3.536 3.848c-1.881 1.521-4.03 2.418-6.76 2.418-2.728 0-4.921-.896-6.756-2.418-2.328-1.923-3.715-4.922-3.715-8.323v-.313c0-3.402 1.387-6.356 3.715-8.28 1.834-1.521 4.028-2.416 6.756-2.416 2.73 0 4.879.895 6.76 2.416" fill="#000000"></path>
  <path d="M75.593 10.74c2.28 1.924 3.713 4.877 3.713 8.279v.313c0 3.401-1.433 6.4-3.713 8.324-1.88 1.521-4.028 2.417-6.76 2.417-2.729 0-4.921-.896-6.757-2.417-2.327-1.924-3.714-4.923-3.714-8.324v-.313c0-3.401 1.387-6.355 3.714-8.279 1.835-1.522 4.027-2.417 6.757-2.417 2.731 0 4.879.895 6.76 2.417m-10.026 3.848c-1.164.985-1.835 2.596-1.835 4.475v.268c0 1.835.671 3.491 1.835 4.475.851.761 1.969 1.165 3.266 1.165 1.298 0 2.373-.404 3.224-1.165 1.208-.984 1.879-2.64 1.879-4.475v-.268c0-1.879-.67-3.49-1.879-4.475-.851-.761-1.925-1.165-3.224-1.165-1.296 0-2.415.404-3.266 1.165" fill="#000000"></path>
  <path d="M92.019 8.859v1.882h.136c1.297-1.479 2.953-2.417 5.146-2.417 1.791 0 3.669.627 4.921 1.879 1.255 1.253 1.881 3.132 1.881 5.549v13.783h-5.638v-12.35c0-1.433-.358-2.237-.942-2.821a3.206 3.206 0 00-2.282-.94c-.849 0-1.656.359-2.237.94-.582.583-.985 1.388-.985 2.821v12.35H86.38V8.859h5.639z" fill="#000000"></path>
  <path d="M118.427 8.859v1.882h.135c1.296-1.479 2.954-2.417 5.146-2.417 1.791 0 3.669.627 4.922 1.879 1.254 1.253 1.882 3.132 1.882 5.549v13.783h-5.641v-12.35c0-1.433-.357-2.237-.938-2.821a3.184 3.184 0 00-4.52 0c-.582.583-.985 1.388-.985 2.821v12.35h-5.639V8.859h5.638z" fill="#000000"></path>
  <path d="M154.814 10.739c2.283 1.924 3.715 4.877 3.715 8.28v2.191h-15.575c.27 1.209 1.209 2.328 1.88 2.864 1.074.852 2.507 1.165 3.715 1.165 1.343 0 2.685-.403 3.536-1.165l3.535 3.58c-1.88 1.521-4.25 2.418-7.116 2.418-2.685 0-5.146-.806-7.026-2.326-2.148-1.746-3.893-4.834-3.893-8.415v-.313c0-3.581 1.478-6.4 3.715-8.28 1.744-1.478 4.026-2.416 6.756-2.416 2.776.002 5.058.985 6.758 2.417m-10.248 3.581c-.628.537-1.343 1.477-1.612 2.594h10.204c-.268-1.117-1.03-2.058-1.655-2.594-.94-.762-2.238-1.165-3.491-1.165-1.252 0-2.551.403-3.446 1.165" fill="#000000"></path>
  <path d="M181.223 10.739l-3.536 3.849c-.851-.76-1.924-1.165-3.223-1.165-1.298 0-2.416.405-3.267 1.165-1.164.984-1.834 2.596-1.834 4.476v.268c0 1.835.67 3.491 1.834 4.475.851.76 1.969 1.164 3.267 1.164 1.299 0 2.372-.403 3.223-1.164l3.536 3.848c-1.882 1.521-4.028 2.418-6.759 2.418-2.729 0-4.922-.896-6.757-2.418-2.328-1.923-3.714-4.922-3.714-8.323v-.313c0-3.402 1.386-6.356 3.714-8.28 1.835-1.521 4.028-2.416 6.757-2.416 2.73 0 4.877.895 6.759 2.416" fill="#000000"></path>
  <path d="M188.519 8.859V2.954h5.639v5.905h4.298v4.835h-4.298v8.055c0 1.834.627 2.685 2.417 2.685h1.881v5.101h-2.418c-4.787 0-7.519-2.37-7.519-7.249v-8.592H185.7V8.859h2.819z" fill="#000000"></path>
  <path d="M60.45 38.777c.466 0 .88.057 1.243.168.362.111.671.237.926.376.256.14.451.265.585.375.134.113.206.17.214.17l-1.034 1.289a2.866 2.866 0 00-.537-.376 3.463 3.463 0 00-.612-.27 2.446 2.446 0 00-.786-.12c-.376 0-.678.082-.907.248-.228.165-.342.375-.342.625v.025c0 .242.096.44.289.592.192.153.509.31.948.471l.993.362c.779.287 1.333.646 1.658 1.074.327.43.491.919.491 1.465v.105c0 .323-.081.642-.242.955a2.738 2.738 0 01-.679.84c-.291.246-.64.442-1.048.591a3.95 3.95 0 01-1.35.221c-.483 0-.906-.055-1.269-.167a5.68 5.68 0 01-.933-.37 4.216 4.216 0 01-.792-.55l1.035-1.289c.161.152.344.281.551.389.178.099.387.187.624.263s.499.113.785.113c.224 0 .43-.026.618-.079.188-.056.351-.129.491-.223.139-.094.247-.204.323-.33a.76.76 0 00.114-.402v-.026a.998.998 0 00-.061-.35.782.782 0 00-.221-.302 2.148 2.148 0 00-.437-.283 6.956 6.956 0 00-.718-.303l-.994-.361c-.609-.223-1.086-.518-1.431-.88s-.517-.857-.517-1.483v-.108c0-.295.069-.59.208-.887a2.37 2.37 0 01.597-.785c.26-.229.576-.415.947-.558a3.519 3.519 0 011.27-.215" fill="#000000"></path>
  <path d="M78.006 38.938l2.056 6.77h.039l2.054-6.77h1.894l-2.806 8.864h-2.365l-2.807-8.864z" fill="#000000"></path>
  <path d="M102.907 38.938v1.611h-3.546v1.935h3.103v1.612h-3.103v2.095h3.546v1.611h-5.32v-8.864z" fill="#000000"></path>
  <path d="M120.892 38.938c.402 0 .772.067 1.107.202.336.134.626.322.867.563.242.242.43.529.563.858.136.334.201.691.201 1.076v.161c0 .599-.155 1.111-.47 1.531a2.64 2.64 0 01-1.25.913l1.962 3.559h-2.015l-1.868-3.384h-1.235v3.384h-1.773v-8.864h3.911zm-2.136 3.949h1.974c.351 0 .625-.109.827-.329a1.09 1.09 0 00.303-.759v-.161c0-.286-.101-.539-.303-.76-.202-.219-.476-.328-.827-.328h-1.974v2.337z" fill="#000000"></path>
  <path d="M137.534 38.938h1.772v8.865h-1.772z" fill="#000000"></path>
  <path d="M157.116 38.777a3.88 3.88 0 011.531.296c.467.197.882.469 1.249.819l-1.074 1.343a2.173 2.173 0 00-.744-.625 2.11 2.11 0 00-.962-.221c-.591 0-1.088.202-1.49.604a2.609 2.609 0 00-.625.98 3.746 3.746 0 00-.222 1.316v.161c0 .483.074.924.222 1.316.146.395.356.721.625.98.402.403.899.604 1.49.604.304 0 .59-.054.854-.161.264-.106.472-.264.623-.471a1.32 1.32 0 00.222-.483c.05-.188.075-.433.075-.738v-.242h-1.773v-1.611h3.547v1.693c0 1.083-.296 1.935-.888 2.551a3.209 3.209 0 01-1.148.793 3.893 3.893 0 01-1.511.281c-.529 0-1.019-.09-1.472-.269a3.996 3.996 0 01-1.215-.752 4.275 4.275 0 01-1.046-1.51c-.253-.596-.376-1.257-.376-1.982v-.159c0-.725.123-1.385.376-1.98.25-.597.599-1.1 1.046-1.511a4.026 4.026 0 011.215-.753 3.962 3.962 0 011.471-.269" fill="#000000"></path>
  <path d="M179.601 38.938v1.611h-3.546v1.935h3.103v1.612h-3.103v2.095h3.546v1.611h-5.318v-8.864z" fill="#000000"></path>
</svg>