<?xml version="1.0" encoding="utf-8"?>
<!-- Generator: Adobe Illustrator 27.8.1, SVG Export Plug-In . SVG Version: 6.00 Build 0)  -->
<svg version="1.1" id="Lager_1" xmlns="http://www.w3.org/2000/svg" xmlns:xlink="http://www.w3.org/1999/xlink" x="0px" y="0px"
	 viewBox="0 0 200 50" style="enable-background:new 0 0 200 50;" xml:space="preserve">
<style type="text/css">
	.st0{fill:#FFFFFF;}
</style>
<path class="st0" d="M23,0h3.5c14.4,1.8,25,14.7,22.1,29C42.9,57.1,3,54.8,0,26.2v-3.7C2.2,9.3,9.9,1.8,23,0z M22.1,6.4
	C4.7,9.7,0.8,31,15.4,40.3c0.3,0.2,0.5,0.1,0.7-0.2l2.4-5c0.1-0.3,0.1-0.5-0.2-0.8c-8.8-6.6-6.3-18.2,3.9-21.2
	c0.3-0.1,0.5-0.3,0.5-0.6V7c0-0.3-0.3-0.6-0.6-0.6C22.1,6.4,22.1,6.4,22.1,6.4z M26.4,12.3c0,0.4,0.2,0.8,0.6,0.9
	c10.2,2.7,12.3,14.9,3.9,21.1c-0.3,0.2-0.4,0.6-0.2,0.9l2.2,4.8c0.2,0.4,0.5,0.5,1,0.3c14.4-8.6,10.5-31.4-6.8-33.6
	c-0.3,0-0.5,0.1-0.5,0.4L26.4,12.3z"/>
<path class="st0" d="M165.5,18.2v12.2c0,0.8,0.7,1.5,1.5,1.5h4.1c0.4,0,0.6,0.2,0.6,0.6V37c0,0.3-0.2,0.5-0.5,0.5
	c-2.5,0-5.8,0.3-7.9-0.5c-5.5-2.1-4.3-12.6-3.9-18.7c0-0.3-0.2-0.5-0.5-0.5c0,0,0,0,0,0h-3c-0.4,0-0.6-0.2-0.6-0.5l0.1-3.9
	c0-0.6,0.5-1,1-1l2.3,0c0.4,0,0.6-0.3,0.6-0.7c0,0,0,0,0-0.1c-0.2-1.7-0.2-3.5,0-5.2c0-0.4,0.2-0.5,0.6-0.5h4.9
	c0.4,0,0.6,0.2,0.6,0.6v5.2c0,0.4,0.2,0.6,0.6,0.6h4.8c0.3,0,0.6,0.3,0.6,0.6c0,0,0,0,0,0l0,4.1c0,0.5-0.3,0.8-0.8,0.8H166
	C165.7,17.8,165.5,17.9,165.5,18.2z"/>
<path class="st0" d="M65.4,12.8c6.6-2.6,14.3,0.5,16.4,7.7c0.1,0.3-0.1,0.6-0.4,0.7c-0.1,0-0.1,0-0.2,0L76.4,21
	c-0.3,0-0.6-0.2-0.7-0.5c-0.8-1.6-1.5-2.6-2.3-3c-7.5-3.3-10.7,4.6-9.2,10.5c1.5,6,9.1,7.3,11.8,1.5c0.2-0.3,0.4-0.5,0.8-0.5h4.7
	c0.3,0,0.5,0.2,0.5,0.5c0,0,0,0.1,0,0.1c-2.1,7.6-10.6,10.2-17.2,7.2C55,32.5,55.5,16.6,65.4,12.8z"/>
<path class="st0" d="M92,15.3c0,0.2,0.1,0.3,0.3,0.3c0.1,0,0.2,0,0.3-0.1c1.9-2.5,4.5-3.7,7.8-3.4c0.4,0,0.7,0.3,0.7,0.7l0,4.8
	c0,0.4-0.2,0.5-0.6,0.5c-10.7-1.7-8.3,12.7-8.1,18.8c0,0.4-0.2,0.6-0.5,0.6l-5.1,0.2c-0.3,0-0.5-0.1-0.5-0.5L86,12.9
	c0-0.3,0.3-0.6,0.6-0.6c0,0,0,0,0,0h4.7c0.4,0,0.6,0.2,0.6,0.6L92,15.3z"/>
<path class="st0" d="M102.8,21.6c3.4-15.2,26.2-11.9,24.9,4.8c0,0.4-0.2,0.6-0.6,0.6h-16.9c-0.9,0-1.3,0.5-1.2,1.4
	c0.8,5.5,8.6,6.4,12,2c0.2-0.3,0.6-0.5,1-0.5l4.7,0.1c0.5,0,0.6,0.2,0.4,0.6C119.6,44.6,99.2,37.7,102.8,21.6z M108.9,23l12.5,0
	c0.1,0,0.1,0,0.1-0.1c0,0,0,0,0,0v-0.1c0-3.3-2.8-5.9-6.3-5.9c0,0,0,0,0,0H115c-3.5,0-6.2,2.7-6.2,6v0.1
	C108.8,22.9,108.8,23,108.9,23z"/>
<path class="st0" d="M130.8,19.6c3.1-11.1,21.8-10.8,21.9,2.5c0.1,4.6,0.1,9.4,0.1,14.4c0,0.6-0.3,1-1,1h-4.6
	c-0.3,0-0.5-0.2-0.5-0.5c0,0,0-0.1,0-0.1l0.3-1.3c0-0.2-0.1-0.4-0.3-0.5c-0.1,0-0.3,0-0.4,0.1c-5.5,4.9-16.5,3.6-16-5.3
	c0.4-7.3,10.4-8.4,15.6-7.8c0.4,0,0.8-0.2,0.8-0.6c0,0,0,0,0,0c0.6-6.1-7.4-5.9-10-1.6c-0.2,0.3-0.4,0.4-0.8,0.4h-4.6
	C130.9,20.2,130.7,20,130.8,19.6z M145.5,26.2c-19.1-0.4-3.2,15,1.3,1.9C147.2,26.9,146.8,26.3,145.5,26.2z"/>
<path class="st0" d="M200,23.4V27h-18.5c-0.3,0-0.5,0.2-0.5,0.5c0,0,0,0,0,0c0.6,6.4,8.5,7.3,12.2,2.8c0.2-0.3,0.5-0.4,0.8-0.4h4.7
	c0.5,0,0.6,0.2,0.4,0.6c-6.2,13.5-26.9,7.5-24.4-7.6C177.2,8,197.8,8.1,200,23.4z M192.8,23c0.1,0.1,0.2,0.1,0.3,0
	c0.5-0.2,0.7-0.7,0.5-1.2c-2.5-6.6-11.1-6.9-12.6,0c-0.1,0.5,0.2,1,0.7,1.1c0.1,0,0.1,0,0.2,0l10.3-0.1C192.5,23,192.7,23,192.8,23z
	"/>
</svg>
