<?xml version="1.0" encoding="UTF-8"?>
<svg id="Lager_2" data-name="Lager 2" xmlns="http://www.w3.org/2000/svg" viewBox="0 0 453.47 654.08">
  <defs>
    <style>
      .cls-1 {
        fill: #000;
        stroke-width: 0px;
      }
    </style>
  </defs>
  <g id="Artwork">
    <g>
      <polygon class="cls-1" points="447 317.72 327.47 317.72 327.47 231.4 311.28 207.77 311.28 317.72 259.98 317.72 259.98 132.91 243.62 109.03 243.62 545.88 259.98 522 259.98 333.3 311.28 333.3 311.28 447.14 327.47 423.51 327.47 333.3 429.66 333.3 226.73 626 19.47 327.04 226.73 28.08 367.44 231.04 386.91 231.04 226.73 0 0 327.04 226.73 654.08 453.47 327.04 447 317.72"/>
      <polygon class="cls-1" points="95.2 276.23 113.97 276.23 195.31 160.11 195.31 327.54 195.11 493.28 115.69 379.71 97.04 379.71 210.88 543.8 210.88 327.54 210.88 108.97 95.2 276.23"/>
    </g>
  </g>
</svg>